<svg xmlns="http://www.w3.org/2000/svg" viewBox="0 0 168 50" width="168" height="50">
  <!-- Variant D3: pure wing gesture - the ribbons themselves IMPLY a
       graph node (where they bend) without drawing it. Touching stacked
       ribbons curve through and fan upward like a wingbeat. -->
  <g>
    <path d="M 0 34 L 14 34 C 22 34 38 30 56 38 L 56 44 C 38 38 22 40 14 40 L 0 40 Z" fill="#F39C9C" />
    <path d="M 0 28 L 14 28 C 22 28 38 23 56 30 L 56 38 C 38 30 22 34 14 34 L 0 34 Z" fill="#E55B5B" />
    <path d="M 0 22 L 14 22 C 22 22 38 16 56 21 L 56 30 C 38 23 22 28 14 28 L 0 28 Z" fill="#4FA3E6" />
    <path d="M 0 16 L 14 16 C 22 16 38 9  56 12 L 56 21 C 38 16 22 22 14 22 L 0 22 Z" fill="#2778C4" />
    <path d="M 0 10 L 14 10 C 22 10 38 2  56 3  L 56 12 C 38 9  22 16 14 16 L 0 16 Z" fill="#1a5276" />
  </g>
  <text x="64" y="37" font-family="Helvetica, Arial, sans-serif" font-weight="700" font-size="34" fill="#1a5276" letter-spacing="-1">vgv</text>
</svg>
