<?xml version="1.0" encoding="UTF-8"?>
<svg xmlns="http://www.w3.org/2000/svg" id="tubemap" viewBox="-10 -38 1567.714285714286 267"><g><defs><pattern id="patternA" width="7" height="7" patternUnits="userSpaceOnUse" patternTransform="rotate(45)"><rect x="0" y="0" width="7" height="7" fill="#FFFFFF"/><rect x="0" y="0" width="3" height="3" fill="#505050"/><rect x="4" y="0" width="3" height="3" fill="#505050"/><rect x="0" y="4" width="3" height="3" fill="#505050"/><rect x="4" y="4" width="3" height="3" fill="#505050"/></pattern></defs><g class="track"><rect x="40" y="80" width="29" height="15" style="fill: rgb(240, 174, 174); fill-opacity: 1;" trackID="4" trackName="Track E" class="track4" color="#F0AEAE"/><rect x="182.28571428571428" y="80" width="18" height="15" style="fill: rgb(240, 174, 174); fill-opacity: 1;" trackID="4" trackName="Track E" class="track4" color="#F0AEAE"/><rect x="359.2857142857143" y="80" width="18" height="15" style="fill: rgb(240, 174, 174); fill-opacity: 1;" trackID="4" trackName="Track E" class="track4" color="#F0AEAE"/><rect x="516.2857142857142" y="65" width="18" height="15" style="fill: rgb(240, 174, 174); fill-opacity: 1;" trackID="4" trackName="Track E" class="track4" color="#F0AEAE"/><rect x="707.5714285714286" y="105" width="79.85714285714289" height="15" style="fill: rgb(240, 174, 174); fill-opacity: 1;" trackID="4" trackName="Track E" class="track4" color="#F0AEAE"/><rect x="849.2857142857143" y="90" width="57.571428571428555" height="15" style="fill: rgb(240, 174, 174); fill-opacity: 1;" trackID="4" trackName="Track E" class="track4" color="#F0AEAE"/><rect x="983" y="155" width="18" height="15" style="fill: rgb(240, 174, 174); fill-opacity: 1;" trackID="4" trackName="Track E" class="track4" color="#F0AEAE"/><rect x="1060" y="120" width="108.57142857142867" height="15" style="fill: rgb(240, 174, 174); fill-opacity: 1;" trackID="4" trackName="Track E" class="track4" color="#F0AEAE"/><rect x="1230.4285714285716" y="145" width="66.71428571428578" height="15" style="fill: rgb(240, 174, 174); fill-opacity: 1;" trackID="4" trackName="Track E" class="track4" color="#F0AEAE"/><rect x="1367.5714285714287" y="195" width="26" height="15" style="fill: rgb(240, 174, 174); fill-opacity: 1;" trackID="4" trackName="Track E" class="track4" color="#F0AEAE"/><rect x="1509.714285714286" y="130" width="38" height="15" style="fill: rgb(240, 174, 174); fill-opacity: 1;" trackID="4" trackName="Track E" class="track4" color="#F0AEAE"/><rect x="40" y="65" width="29" height="15" style="fill: rgb(176, 219, 176); fill-opacity: 1;" trackID="3" trackName="Track D" class="track3" color="#B0DBB0"/><rect x="182.28571428571428" y="65" width="98" height="15" style="fill: rgb(176, 219, 176); fill-opacity: 1;" trackID="3" trackName="Track D" class="track3" color="#B0DBB0"/><rect x="359.2857142857143" y="50" width="174.99999999999994" height="15" style="fill: rgb(176, 219, 176); fill-opacity: 1;" trackID="3" trackName="Track D" class="track3" color="#B0DBB0"/><rect x="707.5714285714286" y="135" width="79.85714285714289" height="15" style="fill: rgb(176, 219, 176); fill-opacity: 1;" trackID="3" trackName="Track D" class="track3" color="#B0DBB0"/><rect x="778.4285714285714" y="90" width="9" height="15" style="fill: rgb(176, 219, 176); fill-opacity: 1;" trackID="3" trackName="Track D" class="track3" color="#B0DBB0"/><rect x="650.4285714285714" y="65" width="66.14285714285711" height="15" style="fill: rgb(176, 219, 176); fill-opacity: 1;" trackID="3" trackName="Track D" class="track3" color="#B0DBB0"/><rect x="707.5714285714286" y="165" width="9" height="15" style="fill: rgb(176, 219, 176); fill-opacity: 1;" trackID="3" trackName="Track D" class="track3" color="#B0DBB0"/><rect x="778.4285714285714" y="160" width="9" height="15" style="fill: rgb(176, 219, 176); fill-opacity: 1;" trackID="3" trackName="Track D" class="track3" color="#B0DBB0"/><rect x="897.8571428571429" y="105" width="9" height="15" style="fill: rgb(176, 219, 176); fill-opacity: 1;" trackID="3" trackName="Track D" class="track3" color="#B0DBB0"/><rect x="983" y="75" width="78" height="15" style="fill: rgb(176, 219, 176); fill-opacity: 1;" trackID="3" trackName="Track D" class="track3" color="#B0DBB0"/><rect x="1108.5714285714287" y="90" width="60" height="15" style="fill: rgb(176, 219, 176); fill-opacity: 1;" trackID="3" trackName="Track D" class="track3" color="#B0DBB0"/><rect x="1230.4285714285716" y="130" width="66.71428571428578" height="15" style="fill: rgb(176, 219, 176); fill-opacity: 1;" trackID="3" trackName="Track D" class="track3" color="#B0DBB0"/><rect x="1367.5714285714287" y="155" width="26" height="15" style="fill: rgb(176, 219, 176); fill-opacity: 1;" trackID="3" trackName="Track D" class="track3" color="#B0DBB0"/><rect x="1509.714285714286" y="115" width="38" height="15" style="fill: rgb(176, 219, 176); fill-opacity: 1;" trackID="3" trackName="Track D" class="track3" color="#B0DBB0"/><rect x="0" y="50" width="200.28571428571428" height="15" style="fill: rgb(255, 207, 165); fill-opacity: 1;" trackID="2" trackName="Track C" class="track2" color="#FFCFA5"/><rect x="359.2857142857143" y="110" width="18" height="15" style="fill: rgb(255, 207, 165); fill-opacity: 1;" trackID="2" trackName="Track C" class="track2" color="#FFCFA5"/><rect x="359.2857142857143" y="135" width="18" height="15" style="fill: rgb(255, 207, 165); fill-opacity: 1;" trackID="2" trackName="Track C" class="track2" color="#FFCFA5"/><rect x="359.2857142857143" y="65" width="18" height="15" style="fill: rgb(255, 207, 165); fill-opacity: 1;" trackID="2" trackName="Track C" class="track2" color="#FFCFA5"/><rect x="359.2857142857143" y="-10" width="18" height="15" style="fill: rgb(255, 207, 165); fill-opacity: 1;" trackID="2" trackName="Track C" class="track2" color="#FFCFA5"/><rect x="359.2857142857143" y="160" width="72.28571428571428" height="15" style="fill: rgb(255, 207, 165); fill-opacity: 1;" trackID="2" trackName="Track C" class="track2" color="#FFCFA5"/><rect x="516.2857142857142" y="80" width="18" height="15" style="fill: rgb(255, 207, 165); fill-opacity: 1;" trackID="2" trackName="Track C" class="track2" color="#FFCFA5"/><rect x="596.1428571428571" y="50" width="120.42857142857144" height="15" style="fill: rgb(255, 207, 165); fill-opacity: 1;" trackID="2" trackName="Track C" class="track2" color="#FFCFA5"/><rect x="778.4285714285714" y="75" width="128.42857142857144" height="15" style="fill: rgb(255, 207, 165); fill-opacity: 1;" trackID="2" trackName="Track C" class="track2" color="#FFCFA5"/><rect x="983" y="115" width="18" height="15" style="fill: rgb(255, 207, 165); fill-opacity: 1;" trackID="2" trackName="Track C" class="track2" color="#FFCFA5"/><rect x="1060" y="105" width="108.57142857142867" height="15" style="fill: rgb(255, 207, 165); fill-opacity: 1;" trackID="2" trackName="Track C" class="track2" color="#FFCFA5"/><rect x="1367.5714285714287" y="30" width="26" height="15" style="fill: rgb(255, 207, 165); fill-opacity: 1;" trackID="2" trackName="Track C" class="track2" color="#FFCFA5"/><rect x="1296.1428571428573" y="115" width="97.42857142857133" height="15" style="fill: rgb(255, 207, 165); fill-opacity: 1;" trackID="2" trackName="Track C" class="track2" color="#FFCFA5"/><rect x="1367.5714285714287" y="55" width="26" height="15" style="fill: rgb(255, 207, 165); fill-opacity: 1;" trackID="2" trackName="Track C" class="track2" color="#FFCFA5"/><rect x="1461.1428571428573" y="70" width="86.57142857142867" height="15" style="fill: rgb(255, 207, 165); fill-opacity: 1;" trackID="2" trackName="Track C" class="track2" color="#FFCFA5"/><rect x="0" y="35" width="716.5714285714286" height="15" style="fill: rgb(171, 204, 227); fill-opacity: 1;" trackID="1" trackName="Track B" class="track1" color="#ABCCE3"/><rect x="778.4285714285714" y="30" width="9" height="15" style="fill: rgb(171, 204, 227); fill-opacity: 1;" trackID="1" trackName="Track B" class="track1" color="#ABCCE3"/><rect x="849.2857142857143" y="45" width="382.1428571428572" height="15" style="fill: rgb(171, 204, 227); fill-opacity: 1;" trackID="1" trackName="Track B" class="track1" color="#ABCCE3"/><rect x="1367.5714285714287" y="85" width="180.14285714285734" height="15" style="fill: rgb(171, 204, 227); fill-opacity: 1;" trackID="1" trackName="Track B" class="track1" color="#ABCCE3"/><rect x="0" y="20" width="716.5714285714286" height="15" style="fill: rgb(31, 119, 180); fill-opacity: 1;" trackID="0" trackName="Track A" class="track0" color="#1f77b4"/><rect x="778.4285714285714" y="60" width="282.57142857142856" height="15" style="fill: rgb(31, 119, 180); fill-opacity: 1;" trackID="0" trackName="Track A" class="track0" color="#1f77b4"/><rect x="1108.5714285714287" y="75" width="122.85714285714289" height="15" style="fill: rgb(31, 119, 180); fill-opacity: 1;" trackID="0" trackName="Track A" class="track0" color="#1f77b4"/><rect x="1296.1428571428573" y="100" width="251.57142857142867" height="15" style="fill: rgb(31, 119, 180); fill-opacity: 1;" trackID="0" trackName="Track A" class="track0" color="#1f77b4"/><path d="M 279.2857142857143 95 C 319.7857142857143 95 319.7857142857143 110 360.2857142857143 110 V 125 C 319.7857142857143 125 319.7857142857143 110 279.2857142857143 110 Z" style="fill: rgb(255, 207, 165); fill-opacity: 1;" trackID="2" trackName="Track C" class="track2" color="#FFCFA5"/><path d="M 279.2857142857143 120 C 319.7857142857143 120 319.7857142857143 160 360.2857142857143 160 V 175 C 319.7857142857143 175 319.7857142857143 135 279.2857142857143 135 Z" style="fill: rgb(255, 207, 165); fill-opacity: 1;" trackID="2" trackName="Track C" class="track2" color="#FFCFA5"/><path d="M 376.2857142857143 110 C 403.92857142857144 110 403.92857142857144 135 431.57142857142856 135 V 150 C 403.92857142857144 150 403.92857142857144 125 376.2857142857143 125 Z" style="fill: rgb(255, 207, 165); fill-opacity: 1;" trackID="2" trackName="Track C" class="track2" color="#FFCFA5"/><path d="M 650.4285714285714 110 C 679.5 110 679.5 135 708.5714285714286 135 V 150 C 679.5 150 679.5 125 650.4285714285714 125 Z" style="fill: rgb(176, 219, 176); fill-opacity: 1;" trackID="3" trackName="Track D" class="track3" color="#B0DBB0"/><path d="M 786.4285714285714 160 C 818.3571428571429 160 818.3571428571429 120 850.2857142857143 120 V 135 C 818.3571428571429 135 818.3571428571429 175 786.4285714285714 175 Z" style="fill: rgb(176, 219, 176); fill-opacity: 1;" trackID="3" trackName="Track D" class="track3" color="#B0DBB0"/><path d="M 1230.4285714285716 45 C 1263.7857142857144 45 1263.7857142857144 30 1297.1428571428573 30 V 45 C 1263.7857142857144 45 1263.7857142857144 60 1230.4285714285716 60 Z" style="fill: rgb(171, 204, 227); fill-opacity: 1;" trackID="1" trackName="Track B" class="track1" color="#ABCCE3"/><path d="M 1296.1428571428573 45 C 1332.3571428571431 45 1332.3571428571431 30 1368.5714285714287 30 V 45 C 1332.3571428571431 45 1332.3571428571431 60 1296.1428571428573 60 Z" style="fill: rgb(255, 207, 165); fill-opacity: 1;" trackID="2" trackName="Track C" class="track2" color="#FFCFA5"/><path d="M 1296.1428571428573 70 C 1332.3571428571431 70 1332.3571428571431 55 1368.5714285714287 55 V 70 C 1332.3571428571431 70 1332.3571428571431 85 1296.1428571428573 85 Z" style="fill: rgb(255, 207, 165); fill-opacity: 1;" trackID="2" trackName="Track C" class="track2" color="#FFCFA5"/><path d="M 1392.5714285714287 55 C 1427.3571428571431 55 1427.3571428571431 70 1462.1428571428573 70 V 85 C 1427.3571428571431 85 1427.3571428571431 70 1392.5714285714287 70 Z" style="fill: rgb(255, 207, 165); fill-opacity: 1;" trackID="2" trackName="Track C" class="track2" color="#FFCFA5"/><path d="M 125.14285714285714 110 C 154.21428571428572 110 154.21428571428572 80 183.28571428571428 80 V 95 C 154.21428571428572 95 154.21428571428572 125 125.14285714285714 125 Z" style="fill: rgb(240, 174, 174); fill-opacity: 1;" trackID="4" trackName="Track E" class="track4" color="#F0AEAE"/><path d="M 360.2857142857143 -10 C 319.7857142857143 -10 319.7857142857143 50 279.2857142857143 50 V 65 C 319.7857142857143 65 319.7857142857143 5 360.2857142857143 5 Z" style="fill: rgb(255, 207, 165); fill-opacity: 1;" trackID="2" trackName="Track C" class="track2" color="#FFCFA5"/><path d="M 430.57142857142856 160 C 473.9285714285714 160 473.9285714285714 80 517.2857142857142 80 V 95 C 473.9285714285714 95 473.9285714285714 175 430.57142857142856 175 Z" style="fill: rgb(255, 207, 165); fill-opacity: 1;" trackID="2" trackName="Track C" class="track2" color="#FFCFA5"/><path d="M 786.4285714285714 30 C 818.3571428571429 30 818.3571428571429 45 850.2857142857143 45 V 60 C 818.3571428571429 60 818.3571428571429 45 786.4285714285714 45 Z" style="fill: rgb(171, 204, 227); fill-opacity: 1;" trackID="1" trackName="Track B" class="track1" color="#ABCCE3"/><path d="M 650.4285714285714 135 C 679.5 135 679.5 165 708.5714285714286 165 V 180 C 679.5 180 679.5 150 650.4285714285714 150 Z" style="fill: rgb(176, 219, 176); fill-opacity: 1;" trackID="3" trackName="Track D" class="track3" color="#B0DBB0"/><path d="M 849.2857142857143 120 C 874.0714285714287 120 874.0714285714287 105 898.8571428571429 105 V 120 C 874.0714285714287 120 874.0714285714287 135 849.2857142857143 135 Z" style="fill: rgb(176, 219, 176); fill-opacity: 1;" trackID="3" trackName="Track D" class="track3" color="#B0DBB0"/><path d="M 1060 60 C 1084.7857142857142 60 1084.7857142857142 75 1109.5714285714287 75 V 90 C 1084.7857142857142 90 1084.7857142857142 75 1060 75 Z" style="fill: rgb(31, 119, 180); fill-opacity: 1;" trackID="0" trackName="Track A" class="track0" color="#1f77b4"/><path d="M 1060 75 C 1084.7857142857142 75 1084.7857142857142 90 1109.5714285714287 90 V 105 C 1084.7857142857142 105 1084.7857142857142 90 1060 90 Z" style="fill: rgb(176, 219, 176); fill-opacity: 1;" trackID="3" trackName="Track D" class="track3" color="#B0DBB0"/><path d="M 1296.1428571428573 30 C 1332.3571428571431 30 1332.3571428571431 85 1368.5714285714287 85 V 100 C 1332.3571428571431 100 1332.3571428571431 45 1296.1428571428573 45 Z" style="fill: rgb(171, 204, 227); fill-opacity: 1;" trackID="1" trackName="Track B" class="track1" color="#ABCCE3"/><path d="M 68 80 C 97.07142857142857 80 97.07142857142857 110 126.14285714285714 110 V 125 C 97.07142857142857 125 97.07142857142857 95 68 95 Z" style="fill: rgb(240, 174, 174); fill-opacity: 1;" trackID="4" trackName="Track E" class="track4" color="#F0AEAE"/><path d="M 68 65 C 97.07142857142857 65 97.07142857142857 80 126.14285714285714 80 V 95 C 97.07142857142857 95 97.07142857142857 80 68 80 Z" style="fill: rgb(176, 219, 176); fill-opacity: 1;" trackID="3" trackName="Track D" class="track3" color="#B0DBB0"/><path d="M 125.14285714285714 80 C 154.21428571428572 80 154.21428571428572 65 183.28571428571428 65 V 80 C 154.21428571428572 80 154.21428571428572 95 125.14285714285714 95 Z" style="fill: rgb(176, 219, 176); fill-opacity: 1;" trackID="3" trackName="Track D" class="track3" color="#B0DBB0"/><path d="M 199.28571428571428 50 C 239.78571428571428 50 239.78571428571428 95 280.2857142857143 95 V 110 C 239.78571428571428 110 239.78571428571428 65 199.28571428571428 65 Z" style="fill: rgb(255, 207, 165); fill-opacity: 1;" trackID="2" trackName="Track C" class="track2" color="#FFCFA5"/><path d="M 199.28571428571428 80 C 239.78571428571428 80 239.78571428571428 150 280.2857142857143 150 V 165 C 239.78571428571428 165 239.78571428571428 95 199.28571428571428 95 Z" style="fill: rgb(240, 174, 174); fill-opacity: 1;" trackID="4" trackName="Track E" class="track4" color="#F0AEAE"/><path d="M 279.2857142857143 65 C 319.7857142857143 65 319.7857142857143 50 360.2857142857143 50 V 65 C 319.7857142857143 65 319.7857142857143 80 279.2857142857143 80 Z" style="fill: rgb(176, 219, 176); fill-opacity: 1;" trackID="3" trackName="Track D" class="track3" color="#B0DBB0"/><path d="M 279.2857142857143 150 C 319.7857142857143 150 319.7857142857143 80 360.2857142857143 80 V 95 C 319.7857142857143 95 319.7857142857143 165 279.2857142857143 165 Z" style="fill: rgb(240, 174, 174); fill-opacity: 1;" trackID="4" trackName="Track E" class="track4" color="#F0AEAE"/><path d="M 376.2857142857143 80 C 403.92857142857144 80 403.92857142857144 105 431.57142857142856 105 V 120 C 403.92857142857144 120 403.92857142857144 95 376.2857142857143 95 Z" style="fill: rgb(240, 174, 174); fill-opacity: 1;" trackID="4" trackName="Track E" class="track4" color="#F0AEAE"/><path d="M 431.57142857142856 65 C 403.92857142857144 65 403.92857142857144 135 376.2857142857143 135 V 150 C 403.92857142857144 150 403.92857142857144 80 431.57142857142856 80 Z" style="fill: rgb(255, 207, 165); fill-opacity: 1;" trackID="2" trackName="Track C" class="track2" color="#FFCFA5"/><path d="M 430.57142857142856 105 C 473.9285714285714 105 473.9285714285714 65 517.2857142857142 65 V 80 C 473.9285714285714 80 473.9285714285714 120 430.57142857142856 120 Z" style="fill: rgb(240, 174, 174); fill-opacity: 1;" trackID="4" trackName="Track E" class="track4" color="#F0AEAE"/><path d="M 533.2857142857142 80 C 565.2142857142857 80 565.2142857142857 50 597.1428571428571 50 V 65 C 565.2142857142857 65 565.2142857142857 95 533.2857142857142 95 Z" style="fill: rgb(255, 207, 165); fill-opacity: 1;" trackID="2" trackName="Track C" class="track2" color="#FFCFA5"/><path d="M 533.2857142857142 50 C 565.2142857142857 50 565.2142857142857 90 597.1428571428571 90 V 105 C 565.2142857142857 105 565.2142857142857 65 533.2857142857142 65 Z" style="fill: rgb(176, 219, 176); fill-opacity: 1;" trackID="3" trackName="Track D" class="track3" color="#B0DBB0"/><path d="M 533.2857142857142 65 C 565.2142857142857 65 565.2142857142857 105 597.1428571428571 105 V 120 C 565.2142857142857 120 565.2142857142857 80 533.2857142857142 80 Z" style="fill: rgb(240, 174, 174); fill-opacity: 1;" trackID="4" trackName="Track E" class="track4" color="#F0AEAE"/><path d="M 596.1428571428571 90 C 623.7857142857142 90 623.7857142857142 110 651.4285714285714 110 V 125 C 623.7857142857142 125 623.7857142857142 105 596.1428571428571 105 Z" style="fill: rgb(176, 219, 176); fill-opacity: 1;" trackID="3" trackName="Track D" class="track3" color="#B0DBB0"/><path d="M 596.1428571428571 105 C 623.7857142857142 105 623.7857142857142 80 651.4285714285714 80 V 95 C 623.7857142857142 95 623.7857142857142 120 596.1428571428571 120 Z" style="fill: rgb(240, 174, 174); fill-opacity: 1;" trackID="4" trackName="Track E" class="track4" color="#F0AEAE"/><path d="M 650.4285714285714 80 C 679.5 80 679.5 105 708.5714285714286 105 V 120 C 679.5 120 679.5 95 650.4285714285714 95 Z" style="fill: rgb(240, 174, 174); fill-opacity: 1;" trackID="4" trackName="Track E" class="track4" color="#F0AEAE"/><path d="M 715.5714285714286 35 C 747.5 35 747.5 30 779.4285714285714 30 V 45 C 747.5 45 747.5 50 715.5714285714286 50 Z" style="fill: rgb(171, 204, 227); fill-opacity: 1;" trackID="1" trackName="Track B" class="track1" color="#ABCCE3"/><path d="M 715.5714285714286 20 C 747.5 20 747.5 60 779.4285714285714 60 V 75 C 747.5 75 747.5 35 715.5714285714286 35 Z" style="fill: rgb(31, 119, 180); fill-opacity: 1;" trackID="0" trackName="Track A" class="track0" color="#1f77b4"/><path d="M 715.5714285714286 50 C 747.5 50 747.5 75 779.4285714285714 75 V 90 C 747.5 90 747.5 65 715.5714285714286 65 Z" style="fill: rgb(255, 207, 165); fill-opacity: 1;" trackID="2" trackName="Track C" class="track2" color="#FFCFA5"/><path d="M 779.4285714285714 90 C 747.5 90 747.5 65 715.5714285714286 65 V 80 C 747.5 80 747.5 105 779.4285714285714 105 Z" style="fill: rgb(176, 219, 176); fill-opacity: 1;" trackID="3" trackName="Track D" class="track3" color="#B0DBB0"/><path d="M 786.4285714285714 105 C 818.3571428571429 105 818.3571428571429 90 850.2857142857143 90 V 105 C 818.3571428571429 105 818.3571428571429 120 786.4285714285714 120 Z" style="fill: rgb(240, 174, 174); fill-opacity: 1;" trackID="4" trackName="Track E" class="track4" color="#F0AEAE"/><path d="M 715.5714285714286 165 C 747.5 165 747.5 160 779.4285714285714 160 V 175 C 747.5 175 747.5 180 715.5714285714286 180 Z" style="fill: rgb(176, 219, 176); fill-opacity: 1;" trackID="3" trackName="Track D" class="track3" color="#B0DBB0"/><path d="M 905.8571428571429 90 C 944.9285714285714 90 944.9285714285714 155 984 155 V 170 C 944.9285714285714 170 944.9285714285714 105 905.8571428571429 105 Z" style="fill: rgb(240, 174, 174); fill-opacity: 1;" trackID="4" trackName="Track E" class="track4" color="#F0AEAE"/><path d="M 905.8571428571429 105 C 944.9285714285714 105 944.9285714285714 75 984 75 V 90 C 944.9285714285714 90 944.9285714285714 120 905.8571428571429 120 Z" style="fill: rgb(176, 219, 176); fill-opacity: 1;" trackID="3" trackName="Track D" class="track3" color="#B0DBB0"/><path d="M 905.8571428571429 75 C 944.9285714285714 75 944.9285714285714 115 984 115 V 130 C 944.9285714285714 130 944.9285714285714 90 905.8571428571429 90 Z" style="fill: rgb(255, 207, 165); fill-opacity: 1;" trackID="2" trackName="Track C" class="track2" color="#FFCFA5"/><path d="M 1000 155 C 1030.5 155 1030.5 120 1061 120 V 135 C 1030.5 135 1030.5 170 1000 170 Z" style="fill: rgb(240, 174, 174); fill-opacity: 1;" trackID="4" trackName="Track E" class="track4" color="#F0AEAE"/><path d="M 1167.5714285714287 105 C 1199.5 105 1199.5 90 1231.4285714285716 90 V 105 C 1199.5 105 1199.5 120 1167.5714285714287 120 Z" style="fill: rgb(255, 207, 165); fill-opacity: 1;" trackID="2" trackName="Track C" class="track2" color="#FFCFA5"/><path d="M 1167.5714285714287 90 C 1199.5 90 1199.5 130 1231.4285714285716 130 V 145 C 1199.5 145 1199.5 105 1167.5714285714287 105 Z" style="fill: rgb(176, 219, 176); fill-opacity: 1;" trackID="3" trackName="Track D" class="track3" color="#B0DBB0"/><path d="M 1167.5714285714287 120 C 1199.5 120 1199.5 145 1231.4285714285716 145 V 160 C 1199.5 160 1199.5 135 1167.5714285714287 135 Z" style="fill: rgb(240, 174, 174); fill-opacity: 1;" trackID="4" trackName="Track E" class="track4" color="#F0AEAE"/><path d="M 1230.4285714285716 90 C 1263.7857142857144 90 1263.7857142857144 45 1297.1428571428573 45 V 60 C 1263.7857142857144 60 1263.7857142857144 105 1230.4285714285716 105 Z" style="fill: rgb(255, 207, 165); fill-opacity: 1;" trackID="2" trackName="Track C" class="track2" color="#FFCFA5"/><path d="M 1230.4285714285716 75 C 1263.7857142857144 75 1263.7857142857144 100 1297.1428571428573 100 V 115 C 1263.7857142857144 115 1263.7857142857144 90 1230.4285714285716 90 Z" style="fill: rgb(31, 119, 180); fill-opacity: 1;" trackID="0" trackName="Track A" class="track0" color="#1f77b4"/><path d="M 1296.1428571428573 130 C 1332.3571428571431 130 1332.3571428571431 155 1368.5714285714287 155 V 170 C 1332.3571428571431 170 1332.3571428571431 145 1296.1428571428573 145 Z" style="fill: rgb(176, 219, 176); fill-opacity: 1;" trackID="3" trackName="Track D" class="track3" color="#B0DBB0"/><path d="M 1296.1428571428573 145 C 1332.3571428571431 145 1332.3571428571431 195 1368.5714285714287 195 V 210 C 1332.3571428571431 210 1332.3571428571431 160 1296.1428571428573 160 Z" style="fill: rgb(240, 174, 174); fill-opacity: 1;" trackID="4" trackName="Track E" class="track4" color="#F0AEAE"/><path d="M 1000 115 C 1030.5 115 1030.5 105 1061 105 V 120 C 1030.5 120 1030.5 130 1000 130 Z" style="fill: rgb(255, 207, 165); fill-opacity: 1;" trackID="2" trackName="Track C" class="track2" color="#FFCFA5"/><path d="M 1392.5714285714287 155 C 1427.3571428571431 155 1427.3571428571431 130 1462.1428571428573 130 V 145 C 1427.3571428571431 145 1427.3571428571431 170 1392.5714285714287 170 Z" style="fill: rgb(176, 219, 176); fill-opacity: 1;" trackID="3" trackName="Track D" class="track3" color="#B0DBB0"/><path d="M 1392.5714285714287 195 C 1427.3571428571431 195 1427.3571428571431 145 1462.1428571428573 145 V 160 C 1427.3571428571431 160 1427.3571428571431 210 1392.5714285714287 210 Z" style="fill: rgb(240, 174, 174); fill-opacity: 1;" trackID="4" trackName="Track E" class="track4" color="#F0AEAE"/><path d="M 1461.1428571428573 130 C 1485.9285714285716 130 1485.9285714285716 115 1510.714285714286 115 V 130 C 1485.9285714285716 130 1485.9285714285716 145 1461.1428571428573 145 Z" style="fill: rgb(176, 219, 176); fill-opacity: 1;" trackID="3" trackName="Track D" class="track3" color="#B0DBB0"/><path d="M 1461.1428571428573 145 C 1485.9285714285716 145 1485.9285714285716 130 1510.714285714286 130 V 145 C 1485.9285714285716 145 1485.9285714285716 160 1461.1428571428573 160 Z" style="fill: rgb(240, 174, 174); fill-opacity: 1;" trackID="4" trackName="Track E" class="track4" color="#F0AEAE"/><rect x="786.4285714285714" y="135" width="6" height="15" style="fill: rgb(176, 219, 176);" trackID="3" trackName="Track D" class="track3" color="#B0DBB0"/><rect x="798.4285714285714" y="111" width="7" height="19" style="fill: rgb(176, 219, 176);" trackID="3" trackName="Track D" class="track3" color="#B0DBB0"/><rect x="786.4285714285714" y="90" width="6" height="15" style="fill: rgb(176, 219, 176);" trackID="3" trackName="Track D" class="track3" color="#B0DBB0"/><rect x="644.4285714285714" y="65" width="7" height="15" style="fill: rgb(176, 219, 176);" trackID="3" trackName="Track D" class="track3" color="#B0DBB0"/><rect x="631.4285714285714" y="86" width="7" height="44" style="fill: rgb(176, 219, 176);" trackID="3" trackName="Track D" class="track3" color="#B0DBB0"/><rect x="644.4285714285714" y="135" width="7" height="15" style="fill: rgb(176, 219, 176);" trackID="3" trackName="Track D" class="track3" color="#B0DBB0"/><path d="M 791.4285714285714 135 Q 798.4285714285714 135 798.4285714285714 128 H 805.4285714285714 Q 805.4285714285714 150 791.4285714285714 150 Z " style="fill: rgb(176, 219, 176);" trackID="3" class="track3" color="#B0DBB0"/><path d="M 791.4285714285714 90 Q 805.4285714285714 90 805.4285714285714 112 H 798.4285714285714 Q 798.4285714285714 105 791.4285714285714 105 Z " style="fill: rgb(176, 219, 176);" trackID="3" class="track3" color="#B0DBB0"/><path d="M 645.4285714285714 135 Q 638.4285714285714 135 638.4285714285714 128 H 631.4285714285714 Q 631.4285714285714 150 645.4285714285714 150 Z " style="fill: rgb(176, 219, 176);" trackID="3" class="track3" color="#B0DBB0"/><path d="M 645.4285714285714 65 Q 631.4285714285714 65 631.4285714285714 87 H 638.4285714285714 Q 638.4285714285714 80 645.4285714285714 80 Z " style="fill: rgb(176, 219, 176);" trackID="3" class="track3" color="#B0DBB0"/><rect x="430.57142857142856" y="135" width="6" height="15" style="fill: rgb(255, 207, 165);" trackID="2" trackName="Track C" class="track2" color="#FFCFA5"/><rect x="442.57142857142856" y="86" width="7" height="44" style="fill: rgb(255, 207, 165);" trackID="2" trackName="Track C" class="track2" color="#FFCFA5"/><rect x="430.57142857142856" y="65" width="6" height="15" style="fill: rgb(255, 207, 165);" trackID="2" trackName="Track C" class="track2" color="#FFCFA5"/><rect x="353.2857142857143" y="135" width="7" height="15" style="fill: rgb(255, 207, 165);" trackID="2" trackName="Track C" class="track2" color="#FFCFA5"/><rect x="340.2857142857143" y="86" width="7" height="44" style="fill: rgb(255, 207, 165);" trackID="2" trackName="Track C" class="track2" color="#FFCFA5"/><rect x="353.2857142857143" y="65" width="7" height="15" style="fill: rgb(255, 207, 165);" trackID="2" trackName="Track C" class="track2" color="#FFCFA5"/><rect x="376.2857142857143" y="65" width="6" height="15" style="fill: rgb(255, 207, 165);" trackID="2" trackName="Track C" class="track2" color="#FFCFA5"/><rect x="388.2857142857143" y="11" width="7" height="49" style="fill: rgb(255, 207, 165);" trackID="2" trackName="Track C" class="track2" color="#FFCFA5"/><rect x="376.2857142857143" y="-10" width="6" height="15" style="fill: rgb(255, 207, 165);" trackID="2" trackName="Track C" class="track2" color="#FFCFA5"/><rect x="273.2857142857143" y="50" width="7" height="15" style="fill: rgb(255, 207, 165);" trackID="2" trackName="Track C" class="track2" color="#FFCFA5"/><rect x="260.2857142857143" y="71" width="7" height="44" style="fill: rgb(255, 207, 165);" trackID="2" trackName="Track C" class="track2" color="#FFCFA5"/><rect x="273.2857142857143" y="120" width="7" height="15" style="fill: rgb(255, 207, 165);" trackID="2" trackName="Track C" class="track2" color="#FFCFA5"/><rect x="1392.5714285714287" y="30" width="6" height="15" style="fill: rgb(255, 207, 165);" trackID="2" trackName="Track C" class="track2" color="#FFCFA5"/><rect x="1404.5714285714287" y="51" width="7" height="59" style="fill: rgb(255, 207, 165);" trackID="2" trackName="Track C" class="track2" color="#FFCFA5"/><rect x="1392.5714285714287" y="115" width="6" height="15" style="fill: rgb(255, 207, 165);" trackID="2" trackName="Track C" class="track2" color="#FFCFA5"/><rect x="1290.1428571428573" y="115" width="7" height="15" style="fill: rgb(255, 207, 165);" trackID="2" trackName="Track C" class="track2" color="#FFCFA5"/><rect x="1277.1428571428573" y="91" width="7" height="19" style="fill: rgb(255, 207, 165);" trackID="2" trackName="Track C" class="track2" color="#FFCFA5"/><rect x="1290.1428571428573" y="70" width="7" height="15" style="fill: rgb(255, 207, 165);" trackID="2" trackName="Track C" class="track2" color="#FFCFA5"/><path d="M 435.57142857142856 135 Q 442.57142857142856 135 442.57142857142856 128 H 449.57142857142856 Q 449.57142857142856 150 435.57142857142856 150 Z " style="fill: rgb(255, 207, 165);" trackID="2" class="track2" color="#FFCFA5"/><path d="M 435.57142857142856 65 Q 449.57142857142856 65 449.57142857142856 87 H 442.57142857142856 Q 442.57142857142856 80 435.57142857142856 80 Z " style="fill: rgb(255, 207, 165);" trackID="2" class="track2" color="#FFCFA5"/><path d="M 354.2857142857143 135 Q 347.2857142857143 135 347.2857142857143 128 H 340.2857142857143 Q 340.2857142857143 150 354.2857142857143 150 Z " style="fill: rgb(255, 207, 165);" trackID="2" class="track2" color="#FFCFA5"/><path d="M 354.2857142857143 65 Q 340.2857142857143 65 340.2857142857143 87 H 347.2857142857143 Q 347.2857142857143 80 354.2857142857143 80 Z " style="fill: rgb(255, 207, 165);" trackID="2" class="track2" color="#FFCFA5"/><path d="M 381.2857142857143 65 Q 388.2857142857143 65 388.2857142857143 58 H 395.2857142857143 Q 395.2857142857143 80 381.2857142857143 80 Z " style="fill: rgb(255, 207, 165);" trackID="2" class="track2" color="#FFCFA5"/><path d="M 381.2857142857143 -10 Q 395.2857142857143 -10 395.2857142857143 12 H 388.2857142857143 Q 388.2857142857143 5 381.2857142857143 5 Z " style="fill: rgb(255, 207, 165);" trackID="2" class="track2" color="#FFCFA5"/><path d="M 274.2857142857143 120 Q 267.2857142857143 120 267.2857142857143 113 H 260.2857142857143 Q 260.2857142857143 135 274.2857142857143 135 Z " style="fill: rgb(255, 207, 165);" trackID="2" class="track2" color="#FFCFA5"/><path d="M 274.2857142857143 50 Q 260.2857142857143 50 260.2857142857143 72 H 267.2857142857143 Q 267.2857142857143 65 274.2857142857143 65 Z " style="fill: rgb(255, 207, 165);" trackID="2" class="track2" color="#FFCFA5"/><path d="M 1397.5714285714287 115 Q 1404.5714285714287 115 1404.5714285714287 108 H 1411.5714285714287 Q 1411.5714285714287 130 1397.5714285714287 130 Z " style="fill: rgb(255, 207, 165);" trackID="2" class="track2" color="#FFCFA5"/><path d="M 1397.5714285714287 30 Q 1411.5714285714287 30 1411.5714285714287 52 H 1404.5714285714287 Q 1404.5714285714287 45 1397.5714285714287 45 Z " style="fill: rgb(255, 207, 165);" trackID="2" class="track2" color="#FFCFA5"/><path d="M 1291.1428571428573 115 Q 1284.1428571428573 115 1284.1428571428573 108 H 1277.1428571428573 Q 1277.1428571428573 130 1291.1428571428573 130 Z " style="fill: rgb(255, 207, 165);" trackID="2" class="track2" color="#FFCFA5"/><path d="M 1291.1428571428573 70 Q 1277.1428571428573 70 1277.1428571428573 92 H 1284.1428571428573 Q 1284.1428571428573 85 1291.1428571428573 85 Z " style="fill: rgb(255, 207, 165);" trackID="2" class="track2" color="#FFCFA5"/></g><g class="node"><path id="A" d="M 11 20 Q 11 11 20 11 Q 29 11 29 20 L 29 65 Q 29 74 20 74 Q 11 74 11 65 L 11 20" style="fill: rgb(255, 255, 255); fill-opacity: 0.4; stroke: rgb(0, 0, 0); stroke-width: 2px;"/><path id="B" d="M 51 20 Q 51 11 60 11 L 68 11 Q 77 11 77 20 L 77 95 Q 77 104 68 104 L 60 104 Q 51 104 51 95 L 51 20" style="fill: rgb(255, 255, 255); fill-opacity: 0.4; stroke: rgb(0, 0, 0); stroke-width: 2px;"/><path id="C" d="M 116.14285714285714 80 Q 116.14285714285714 71 125.14285714285714 71 Q 134.14285714285714 71 134.14285714285714 80 L 134.14285714285714 95 Q 134.14285714285714 104 125.14285714285714 104 Q 116.14285714285714 104 116.14285714285714 95 L 116.14285714285714 80" style="fill: rgb(255, 255, 255); fill-opacity: 0.4; stroke: rgb(0, 0, 0); stroke-width: 2px;"/><path id="D" d="M 173.28571428571428 20 Q 173.28571428571428 11 182.28571428571428 11 L 199.28571428571428 11 Q 208.28571428571428 11 208.28571428571428 20 L 208.28571428571428 95 Q 208.28571428571428 104 199.28571428571428 104 L 182.28571428571428 104 Q 173.28571428571428 104 173.28571428571428 95 L 173.28571428571428 20" style="fill: rgb(255, 255, 255); fill-opacity: 0.4; stroke: rgb(0, 0, 0); stroke-width: 2px;"/><path id="E" d="M 270.2857142857143 20 Q 270.2857142857143 11 279.2857142857143 11 Q 288.2857142857143 11 288.2857142857143 20 L 288.2857142857143 80 Q 288.2857142857143 89 279.2857142857143 89 Q 270.2857142857143 89 270.2857142857143 80 L 270.2857142857143 20" style="fill: rgb(255, 255, 255); fill-opacity: 0.4; stroke: rgb(0, 0, 0); stroke-width: 2px;"/><path id="F" d="M 270.2857142857143 150 Q 270.2857142857143 141 279.2857142857143 141 Q 288.2857142857143 141 288.2857142857143 150 L 288.2857142857143 165 Q 288.2857142857143 174 279.2857142857143 174 Q 270.2857142857143 174 270.2857142857143 165 L 270.2857142857143 150" style="fill: rgb(255, 255, 255); fill-opacity: 0.4; stroke: rgb(0, 0, 0); stroke-width: 2px;"/><path id="G" d="M 350.2857142857143 20 Q 350.2857142857143 11 359.2857142857143 11 L 376.2857142857143 11 Q 385.2857142857143 11 385.2857142857143 20 L 385.2857142857143 95 Q 385.2857142857143 104 376.2857142857143 104 L 359.2857142857143 104 Q 350.2857142857143 104 350.2857142857143 95 L 350.2857142857143 20" style="fill: rgb(255, 255, 255); fill-opacity: 0.4; stroke: rgb(0, 0, 0); stroke-width: 2px;"/><path id="H" d="M 421.57142857142856 20 Q 421.57142857142856 11 430.57142857142856 11 Q 439.57142857142856 11 439.57142857142856 20 L 439.57142857142856 80 Q 439.57142857142856 89 430.57142857142856 89 Q 421.57142857142856 89 421.57142857142856 80 L 421.57142857142856 20" style="fill: rgb(255, 255, 255); fill-opacity: 0.4; stroke: rgb(0, 0, 0); stroke-width: 2px;"/><path id="I" d="M 421.57142857142856 105 Q 421.57142857142856 96 430.57142857142856 96 Q 439.57142857142856 96 439.57142857142856 105 L 439.57142857142856 120 Q 439.57142857142856 129 430.57142857142856 129 Q 421.57142857142856 129 421.57142857142856 120 L 421.57142857142856 105" style="fill: rgb(255, 255, 255); fill-opacity: 0.4; stroke: rgb(0, 0, 0); stroke-width: 2px;"/><path id="J" d="M 507.2857142857142 20 Q 507.2857142857142 11 516.2857142857142 11 L 533.2857142857142 11 Q 542.2857142857142 11 542.2857142857142 20 L 542.2857142857142 95 Q 542.2857142857142 104 533.2857142857142 104 L 516.2857142857142 104 Q 507.2857142857142 104 507.2857142857142 95 L 507.2857142857142 20" style="fill: rgb(255, 255, 255); fill-opacity: 0.4; stroke: rgb(0, 0, 0); stroke-width: 2px;"/><path id="K" d="M 587.1428571428571 20 Q 587.1428571428571 11 596.1428571428571 11 Q 605.1428571428571 11 605.1428571428571 20 L 605.1428571428571 65 Q 605.1428571428571 74 596.1428571428571 74 Q 587.1428571428571 74 587.1428571428571 65 L 587.1428571428571 20" style="fill: rgb(255, 255, 255); fill-opacity: 0.4; stroke: rgb(0, 0, 0); stroke-width: 2px;"/><path id="L" d="M 587.1428571428571 90 Q 587.1428571428571 81 596.1428571428571 81 Q 605.1428571428571 81 605.1428571428571 90 L 605.1428571428571 120 Q 605.1428571428571 129 596.1428571428571 129 Q 587.1428571428571 129 587.1428571428571 120 L 587.1428571428571 90" style="fill: rgb(255, 255, 255); fill-opacity: 0.4; stroke: rgb(0, 0, 0); stroke-width: 2px;"/><path id="M" d="M 641.4285714285714 20 Q 641.4285714285714 11 650.4285714285714 11 Q 659.4285714285714 11 659.4285714285714 20 L 659.4285714285714 95 Q 659.4285714285714 104 650.4285714285714 104 Q 641.4285714285714 104 641.4285714285714 95 L 641.4285714285714 20" style="fill: rgb(255, 255, 255); fill-opacity: 0.4; stroke: rgb(0, 0, 0); stroke-width: 2px;"/><path id="N" d="M 698.5714285714286 20 Q 698.5714285714286 11 707.5714285714286 11 Q 716.5714285714286 11 716.5714285714286 20 L 716.5714285714286 80 Q 716.5714285714286 89 707.5714285714286 89 Q 698.5714285714286 89 698.5714285714286 80 L 698.5714285714286 20" style="fill: rgb(255, 255, 255); fill-opacity: 0.4; stroke: rgb(0, 0, 0); stroke-width: 2px;"/><path id="O" d="M 698.5714285714286 105 Q 698.5714285714286 96 707.5714285714286 96 Q 716.5714285714286 96 716.5714285714286 105 L 716.5714285714286 120 Q 716.5714285714286 129 707.5714285714286 129 Q 698.5714285714286 129 698.5714285714286 120 L 698.5714285714286 105" style="fill: rgb(255, 255, 255); fill-opacity: 0.4; stroke: rgb(0, 0, 0); stroke-width: 2px;"/><path id="P" d="M 769.4285714285714 60 Q 769.4285714285714 51 778.4285714285714 51 L 786.4285714285714 51 Q 795.4285714285714 51 795.4285714285714 60 L 795.4285714285714 120 Q 795.4285714285714 129 786.4285714285714 129 L 778.4285714285714 129 Q 769.4285714285714 129 769.4285714285714 120 L 769.4285714285714 60" style="fill: rgb(255, 255, 255); fill-opacity: 0.4; stroke: rgb(0, 0, 0); stroke-width: 2px;"/><path id="Q" d="M 840.2857142857143 45 Q 840.2857142857143 36 849.2857142857143 36 Q 858.2857142857143 36 858.2857142857143 45 L 858.2857142857143 105 Q 858.2857142857143 114 849.2857142857143 114 Q 840.2857142857143 114 840.2857142857143 105 L 840.2857142857143 45" style="fill: rgb(255, 255, 255); fill-opacity: 0.4; stroke: rgb(0, 0, 0); stroke-width: 2px;"/><path id="R" d="M 698.5714285714286 165 Q 698.5714285714286 156 707.5714285714286 156 L 715.5714285714286 156 Q 724.5714285714286 156 724.5714285714286 165 L 724.5714285714286 180 Q 724.5714285714286 189 715.5714285714286 189 L 707.5714285714286 189 Q 698.5714285714286 189 698.5714285714286 180 L 698.5714285714286 165" style="fill: rgb(255, 255, 255); fill-opacity: 0.4; stroke: rgb(0, 0, 0); stroke-width: 2px;"/><path id="S" d="M 888.8571428571429 45 Q 888.8571428571429 36 897.8571428571429 36 L 905.8571428571429 36 Q 914.8571428571429 36 914.8571428571429 45 L 914.8571428571429 120 Q 914.8571428571429 129 905.8571428571429 129 L 897.8571428571429 129 Q 888.8571428571429 129 888.8571428571429 120 L 888.8571428571429 45" style="fill: rgb(255, 255, 255); fill-opacity: 0.4; stroke: rgb(0, 0, 0); stroke-width: 2px;"/><path id="T" d="M 974 155 Q 974 146 983 146 L 1000 146 Q 1009 146 1009 155 L 1009 170 Q 1009 179 1000 179 L 983 179 Q 974 179 974 170 L 974 155" style="fill: rgb(255, 255, 255); fill-opacity: 0.4; stroke: rgb(0, 0, 0); stroke-width: 2px;"/><path id="U" d="M 974 45 Q 974 36 983 36 Q 992 36 992 45 L 992 90 Q 992 99 983 99 Q 974 99 974 90 L 974 45" style="fill: rgb(255, 255, 255); fill-opacity: 0.4; stroke: rgb(0, 0, 0); stroke-width: 2px;"/><path id="V" d="M 1051 105 Q 1051 96 1060 96 Q 1069 96 1069 105 L 1069 135 Q 1069 144 1060 144 Q 1051 144 1051 135 L 1051 105" style="fill: rgb(255, 255, 255); fill-opacity: 0.4; stroke: rgb(0, 0, 0); stroke-width: 2px;"/><path id="W" d="M 1099.5714285714287 75 Q 1099.5714285714287 66 1108.5714285714287 66 L 1167.5714285714287 66 Q 1176.5714285714287 66 1176.5714285714287 75 L 1176.5714285714287 135 Q 1176.5714285714287 144 1167.5714285714287 144 L 1108.5714285714287 144 Q 1099.5714285714287 144 1099.5714285714287 135 L 1099.5714285714287 75" style="fill: rgb(255, 255, 255); fill-opacity: 0.4; stroke: rgb(0, 0, 0); stroke-width: 2px;"/><path id="X" d="M 1221.4285714285716 75 Q 1221.4285714285716 66 1230.4285714285716 66 Q 1239.4285714285716 66 1239.4285714285716 75 L 1239.4285714285716 105 Q 1239.4285714285716 114 1230.4285714285716 114 Q 1221.4285714285716 114 1221.4285714285716 105 L 1221.4285714285716 75" style="fill: rgb(255, 255, 255); fill-opacity: 0.4; stroke: rgb(0, 0, 0); stroke-width: 2px;"/><path id="Y" d="M 1221.4285714285716 130 Q 1221.4285714285716 121 1230.4285714285716 121 Q 1239.4285714285716 121 1239.4285714285716 130 L 1239.4285714285716 160 Q 1239.4285714285716 169 1230.4285714285716 169 Q 1221.4285714285716 169 1221.4285714285716 160 L 1221.4285714285716 130" style="fill: rgb(255, 255, 255); fill-opacity: 0.4; stroke: rgb(0, 0, 0); stroke-width: 2px;"/><path id="Z" d="M 1287.1428571428573 100 Q 1287.1428571428573 91 1296.1428571428573 91 Q 1305.1428571428573 91 1305.1428571428573 100 L 1305.1428571428573 160 Q 1305.1428571428573 169 1296.1428571428573 169 Q 1287.1428571428573 169 1287.1428571428573 160 L 1287.1428571428573 100" style="fill: rgb(255, 255, 255); fill-opacity: 0.4; stroke: rgb(0, 0, 0); stroke-width: 2px;"/><path id="AA" d="M 1358.5714285714287 85 Q 1358.5714285714287 76 1367.5714285714287 76 L 1392.5714285714287 76 Q 1401.5714285714287 76 1401.5714285714287 85 L 1401.5714285714287 130 Q 1401.5714285714287 139 1392.5714285714287 139 L 1367.5714285714287 139 Q 1358.5714285714287 139 1358.5714285714287 130 L 1358.5714285714287 85" style="fill: rgb(255, 255, 255); fill-opacity: 0.4; stroke: rgb(0, 0, 0); stroke-width: 2px;"/><path id="AB" d="M 974 115 Q 974 106 983 106 Q 992 106 992 115 L 992 130 Q 992 139 983 139 Q 974 139 974 130 L 974 115" style="fill: rgb(255, 255, 255); fill-opacity: 0.4; stroke: rgb(0, 0, 0); stroke-width: 2px;"/><path id="AC" d="M 1358.5714285714287 155 Q 1358.5714285714287 146 1367.5714285714287 146 Q 1376.5714285714287 146 1376.5714285714287 155 L 1376.5714285714287 170 Q 1376.5714285714287 179 1367.5714285714287 179 Q 1358.5714285714287 179 1358.5714285714287 170 L 1358.5714285714287 155" style="fill: rgb(255, 255, 255); fill-opacity: 0.4; stroke: rgb(0, 0, 0); stroke-width: 2px;"/><path id="AD" d="M 1358.5714285714287 195 Q 1358.5714285714287 186 1367.5714285714287 186 Q 1376.5714285714287 186 1376.5714285714287 195 L 1376.5714285714287 210 Q 1376.5714285714287 219 1367.5714285714287 219 Q 1358.5714285714287 219 1358.5714285714287 210 L 1358.5714285714287 195" style="fill: rgb(255, 255, 255); fill-opacity: 0.4; stroke: rgb(0, 0, 0); stroke-width: 2px;"/><path id="AF" d="M 1452.1428571428573 130 Q 1452.1428571428573 121 1461.1428571428573 121 Q 1470.1428571428573 121 1470.1428571428573 130 L 1470.1428571428573 160 Q 1470.1428571428573 169 1461.1428571428573 169 Q 1452.1428571428573 169 1452.1428571428573 160 L 1452.1428571428573 130" style="fill: rgb(255, 255, 255); fill-opacity: 0.4; stroke: rgb(0, 0, 0); stroke-width: 2px;"/><path id="AG" d="M 1500.714285714286 70 Q 1500.714285714286 61 1509.714285714286 61 L 1526.714285714286 61 Q 1535.714285714286 61 1535.714285714286 70 L 1535.714285714286 145 Q 1535.714285714286 154 1526.714285714286 154 L 1509.714285714286 154 Q 1500.714285714286 154 1500.714285714286 145 L 1500.714285714286 70" style="fill: rgb(255, 255, 255); fill-opacity: 0.4; stroke: rgb(0, 0, 0); stroke-width: 2px;"/></g><g class="sequence-labels-layer"><text x="16" y="24" font-family="&quot;Courier New&quot;, &quot;Courier&quot;, &quot;Lucida Console&quot;, monospace" font-size="14px" fill="black" style="pointer-events: none;">A</text><text x="56" y="24" font-family="&quot;Courier New&quot;, &quot;Courier&quot;, &quot;Lucida Console&quot;, monospace" font-size="14px" fill="black" style="pointer-events: none;">AA</text><text x="121.14285714285714" y="84" font-family="&quot;Courier New&quot;, &quot;Courier&quot;, &quot;Lucida Console&quot;, monospace" font-size="14px" fill="black" style="pointer-events: none;">T</text><text x="178.28571428571428" y="24" font-family="&quot;Courier New&quot;, &quot;Courier&quot;, &quot;Lucida Console&quot;, monospace" font-size="14px" fill="black" style="pointer-events: none;">GGG</text><text x="275.2857142857143" y="24" font-family="&quot;Courier New&quot;, &quot;Courier&quot;, &quot;Lucida Console&quot;, monospace" font-size="14px" fill="black" style="pointer-events: none;">A</text><text x="275.2857142857143" y="154" font-family="&quot;Courier New&quot;, &quot;Courier&quot;, &quot;Lucida Console&quot;, monospace" font-size="14px" fill="black" style="pointer-events: none;">G</text><text x="355.2857142857143" y="24" font-family="&quot;Courier New&quot;, &quot;Courier&quot;, &quot;Lucida Console&quot;, monospace" font-size="14px" fill="black" style="pointer-events: none;">ATG</text><text x="426.57142857142856" y="24" font-family="&quot;Courier New&quot;, &quot;Courier&quot;, &quot;Lucida Console&quot;, monospace" font-size="14px" fill="black" style="pointer-events: none;">T</text><text x="426.57142857142856" y="109" font-family="&quot;Courier New&quot;, &quot;Courier&quot;, &quot;Lucida Console&quot;, monospace" font-size="14px" fill="black" style="pointer-events: none;">C</text><text x="512.2857142857142" y="24" font-family="&quot;Courier New&quot;, &quot;Courier&quot;, &quot;Lucida Console&quot;, monospace" font-size="14px" fill="black" style="pointer-events: none;">TAA</text><text x="592.1428571428571" y="24" font-family="&quot;Courier New&quot;, &quot;Courier&quot;, &quot;Lucida Console&quot;, monospace" font-size="14px" fill="black" style="pointer-events: none;">C</text><text x="592.1428571428571" y="94" font-family="&quot;Courier New&quot;, &quot;Courier&quot;, &quot;Lucida Console&quot;, monospace" font-size="14px" fill="black" style="pointer-events: none;">G</text><text x="646.4285714285714" y="24" font-family="&quot;Courier New&quot;, &quot;Courier&quot;, &quot;Lucida Console&quot;, monospace" font-size="14px" fill="black" style="pointer-events: none;">C</text><text x="703.5714285714286" y="24" font-family="&quot;Courier New&quot;, &quot;Courier&quot;, &quot;Lucida Console&quot;, monospace" font-size="14px" fill="black" style="pointer-events: none;">A</text><text x="703.5714285714286" y="109" font-family="&quot;Courier New&quot;, &quot;Courier&quot;, &quot;Lucida Console&quot;, monospace" font-size="14px" fill="black" style="pointer-events: none;">C</text><text x="774.4285714285714" y="64" font-family="&quot;Courier New&quot;, &quot;Courier&quot;, &quot;Lucida Console&quot;, monospace" font-size="14px" fill="black" style="pointer-events: none;">AA</text><text x="845.2857142857143" y="49" font-family="&quot;Courier New&quot;, &quot;Courier&quot;, &quot;Lucida Console&quot;, monospace" font-size="14px" fill="black" style="pointer-events: none;">T</text><text x="703.5714285714286" y="169" font-family="&quot;Courier New&quot;, &quot;Courier&quot;, &quot;Lucida Console&quot;, monospace" font-size="14px" fill="black" style="pointer-events: none;">CG</text><text x="893.8571428571429" y="49" font-family="&quot;Courier New&quot;, &quot;Courier&quot;, &quot;Lucida Console&quot;, monospace" font-size="14px" fill="black" style="pointer-events: none;">GA</text><text x="979" y="159" font-family="&quot;Courier New&quot;, &quot;Courier&quot;, &quot;Lucida Console&quot;, monospace" font-size="14px" fill="black" style="pointer-events: none;">GTT</text><text x="979" y="49" font-family="&quot;Courier New&quot;, &quot;Courier&quot;, &quot;Lucida Console&quot;, monospace" font-size="14px" fill="black" style="pointer-events: none;">A</text><text x="1056" y="109" font-family="&quot;Courier New&quot;, &quot;Courier&quot;, &quot;Lucida Console&quot;, monospace" font-size="14px" fill="black" style="pointer-events: none;">G</text><text x="1104.5714285714287" y="79" font-family="&quot;Courier New&quot;, &quot;Courier&quot;, &quot;Lucida Console&quot;, monospace" font-size="14px" fill="black" style="pointer-events: none;">TTGTCTCT</text><text x="1226.4285714285716" y="79" font-family="&quot;Courier New&quot;, &quot;Courier&quot;, &quot;Lucida Console&quot;, monospace" font-size="14px" fill="black" style="pointer-events: none;">T</text><text x="1226.4285714285716" y="134" font-family="&quot;Courier New&quot;, &quot;Courier&quot;, &quot;Lucida Console&quot;, monospace" font-size="14px" fill="black" style="pointer-events: none;">C</text><text x="1292.1428571428573" y="104" font-family="&quot;Courier New&quot;, &quot;Courier&quot;, &quot;Lucida Console&quot;, monospace" font-size="14px" fill="black" style="pointer-events: none;">A</text><text x="1363.5714285714287" y="89" font-family="&quot;Courier New&quot;, &quot;Courier&quot;, &quot;Lucida Console&quot;, monospace" font-size="14px" fill="black" style="pointer-events: none;">CGAG</text><text x="979" y="119" font-family="&quot;Courier New&quot;, &quot;Courier&quot;, &quot;Lucida Console&quot;, monospace" font-size="14px" fill="black" style="pointer-events: none;">T</text><text x="1363.5714285714287" y="159" font-family="&quot;Courier New&quot;, &quot;Courier&quot;, &quot;Lucida Console&quot;, monospace" font-size="14px" fill="black" style="pointer-events: none;">G</text><text x="1363.5714285714287" y="199" font-family="&quot;Courier New&quot;, &quot;Courier&quot;, &quot;Lucida Console&quot;, monospace" font-size="14px" fill="black" style="pointer-events: none;">A</text><text x="1457.1428571428573" y="134" font-family="&quot;Courier New&quot;, &quot;Courier&quot;, &quot;Lucida Console&quot;, monospace" font-size="14px" fill="black" style="pointer-events: none;">T</text><text x="1505.714285714286" y="74" font-family="&quot;Courier New&quot;, &quot;Courier&quot;, &quot;Lucida Console&quot;, monospace" font-size="14px" fill="black" style="pointer-events: none;">GTG</text></g><line x1="16" y1="-20" x2="1530.714285714286" y2="-20" stroke-width="1" stroke="black"/><line x1="16" y1="-25" x2="16" y2="-15" stroke-width="1" stroke="black"/><line x1="1530.714285714286" y1="-25" x2="1530.714285714286" y2="-15" stroke-width="1" stroke="black"/><text text-anchor="start" x="16" y="-28" font-family="&quot;Courier New&quot;, &quot;Courier&quot;, &quot;Lucida Console&quot;, monospace" font-size="12px" fill="black" style="pointer-events: none;">1</text><line x1="16" y1="-25" x2="16" y2="-15" stroke-width="1" stroke="black"/><text text-anchor="end" x="901.8571428571429" y="-28" font-family="&quot;Courier New&quot;, &quot;Courier&quot;, &quot;Lucida Console&quot;, monospace" font-size="12px" fill="black" style="pointer-events: none;">21</text><line x1="901.8571428571429" y1="-25" x2="901.8571428571429" y2="-15" stroke-width="1" stroke="black"/><g class="mismatches-layer"/></g></svg>